<?xml version="1.0" encoding="UTF-8" standalone="no"?>
<!DOCTYPE svg PUBLIC "-//W3C//DTD SVG 1.1//EN"
 "http://www.w3.org/Graphics/SVG/1.1/DTD/svg11.dtd">
<!-- Generated by graphviz version 8.1.0 (0)
 -->
<!-- Pages: 1 -->
<svg width="110pt" height="292pt"
 viewBox="0.00 0.00 110.00 291.75" xmlns="http://www.w3.org/2000/svg" xmlns:xlink="http://www.w3.org/1999/xlink">
<g id="graph0" class="graph" transform="scale(1 1) rotate(0) translate(4 287.75)">
<polygon fill="white" stroke="none" points="-4,4 -4,-287.75 106,-287.75 106,4 -4,4"/>
<g id="clust1" class="cluster">
<title>cluster_plate1</title>
<polygon fill="none" stroke="black" points="8,-93.25 8,-275.75 94,-275.75 94,-93.25 8,-93.25"/>
<text text-anchor="middle" x="63.5" y="-101.2" font-family="Times,serif" font-size="14.00">plate1</text>
</g>
<g id="clust2" class="cluster">
<title>cluster_plate2</title>
<polygon fill="none" stroke="black" points="16,-126.5 16,-203.75 86,-203.75 86,-126.5 16,-126.5"/>
<text text-anchor="middle" x="55.5" y="-134.45" font-family="Times,serif" font-size="14.00">plate2</text>
</g>
<g id="clust3" class="cluster">
<title>cluster_plate2__CLONE</title>
<polygon fill="none" stroke="black" points="16,-8 16,-85.25 86,-85.25 86,-8 16,-8"/>
<text text-anchor="middle" x="55.5" y="-15.95" font-family="Times,serif" font-size="14.00">plate2</text>
</g>
<!-- x -->
<g id="node1" class="node">
<title>x</title>
<ellipse fill="white" stroke="black" cx="51" cy="-249.75" rx="27" ry="18"/>
<text text-anchor="middle" x="51" y="-245.07" font-family="Times,serif" font-size="14.00">x</text>
</g>
<!-- y -->
<g id="node2" class="node">
<title>y</title>
<ellipse fill="white" stroke="black" cx="51" cy="-177.75" rx="27" ry="18"/>
<text text-anchor="middle" x="51" y="-173.07" font-family="Times,serif" font-size="14.00">y</text>
</g>
<!-- x&#45;&gt;y -->
<g id="edge1" class="edge">
<title>x&#45;&gt;y</title>
<path fill="none" stroke="black" d="M51,-231.45C51,-223.99 51,-215.07 51,-206.72"/>
<polygon fill="black" stroke="black" points="54.5,-206.85 51,-196.85 47.5,-206.85 54.5,-206.85"/>
</g>
<!-- z -->
<g id="node3" class="node">
<title>z</title>
<ellipse fill="gray" stroke="black" cx="51" cy="-59.25" rx="27" ry="18"/>
<text text-anchor="middle" x="51" y="-54.58" font-family="Times,serif" font-size="14.00">z</text>
</g>
<!-- y&#45;&gt;z -->
<g id="edge2" class="edge">
<title>y&#45;&gt;z</title>
<path fill="none" stroke="black" d="M51,-159.31C51,-140.5 51,-110.28 51,-88.16"/>
<polygon fill="black" stroke="black" points="54.5,-88.43 51,-78.43 47.5,-88.43 54.5,-88.43"/>
</g>
</g>
</svg>
